<svg width="822" height="244" viewBox="0 0 822 244" fill="none" xmlns="http://www.w3.org/2000/svg">
<path fill-rule="evenodd" clip-rule="evenodd" d="M584.974 0L624.066 39.091H635.416L468.013 206.496H669.057L629.965 167.404H618.056L785.462 0H584.974Z" fill="#EC1D24"/>
<path fill-rule="evenodd" clip-rule="evenodd" d="M566.873 98.861L468.013 0H578.966L622.349 43.384L566.873 98.861ZM711.037 243.034L631.526 163.514L687.003 108.038L821.99 243.034H711.037Z" fill="#231F20"/>
<path fill-rule="evenodd" clip-rule="evenodd" d="M4.254 70.4584C4.254 69.7024 4.489 69.0874 4.963 68.6144C5.435 68.1414 6.048 67.9054 6.807 67.9054H62.956C63.712 67.9054 64.325 68.1414 64.8 68.6144C65.271 69.0874 65.509 69.7024 65.509 70.4584C65.509 72.5374 64.8 74.2644 63.381 75.6314C61.963 77.0044 60.214 77.6874 58.134 77.6874H6.807C6.048 77.6874 5.435 77.4554 4.963 76.9784C4.489 76.5074 4.254 75.8934 4.254 75.1374V70.4584ZM0 138.658C0 136.958 0.756 135.208 2.269 133.411L40.836 87.1894C41.12 86.7154 41.521 86.3624 42.042 86.1254C42.56 85.8894 43.009 85.7714 43.389 85.7714H52.747C53.219 85.7714 53.456 85.9594 53.456 86.3394C53.456 86.7154 53.315 87.0954 53.03 87.4714L16.306 131.285H63.808C64.562 131.285 65.176 131.523 65.65 131.994C66.122 132.47 66.359 133.082 66.359 133.837V138.517C66.359 139.275 66.122 139.887 65.65 140.36C65.176 140.834 64.562 141.069 63.808 141.069H2.553C1.796 141.069 1.181 140.857 0.709 140.431C0.235 140.005 0 139.416 0 138.658ZM125.059 100.659C125.059 99.9026 125.294 99.2906 125.768 98.8146C126.24 98.3446 126.854 98.1056 127.612 98.1056H163.201C163.861 98.1056 164.453 98.3446 164.973 98.8146C165.492 99.2906 165.754 99.9026 165.754 100.659V105.055C165.754 105.811 165.492 106.426 164.973 106.9C164.453 107.373 163.861 107.608 163.201 107.608H127.612C126.854 107.608 126.24 107.373 125.768 106.9C125.294 106.426 125.059 105.811 125.059 105.055V100.659ZM117.261 131.285H167.597C168.257 131.285 168.849 131.547 169.37 132.065C169.888 132.586 170.149 133.224 170.149 133.979V138.517C170.149 139.179 169.888 139.773 169.37 140.291C168.849 140.811 168.257 141.07 167.597 141.07H108.894C108.233 141.07 107.642 140.811 107.122 140.291C106.602 139.773 106.343 139.179 106.343 138.517V70.5996C106.343 69.8436 106.602 69.2056 107.122 68.6846C107.642 68.1676 108.233 67.9056 108.894 67.9056H166.888C167.643 67.9056 168.282 68.1676 168.802 68.6846C169.321 69.2056 169.581 69.8436 169.581 70.5996V75.1376C169.581 75.7996 169.321 76.3896 168.802 76.9086C168.282 77.4286 167.643 77.6876 166.888 77.6876H117.261V131.285ZM217.932 131.285V77.6874H252.279C255.296 77.6874 257.817 78.6814 259.84 80.6664C261.866 82.6514 262.881 85.0624 262.881 87.8974C262.881 90.6424 261.96 93.0264 260.117 95.0594C258.272 97.0914 255.743 98.1054 252.529 98.1054H228.425C227.666 98.1054 227.055 98.3444 226.581 98.8144C226.108 99.2914 225.872 99.9024 225.872 100.658V104.914C225.872 105.669 226.108 106.284 226.581 106.755C227.055 107.231 227.666 107.463 228.425 107.463H253.805C257.399 107.463 260.163 108.669 262.101 111.081C264.036 113.489 265.007 116.257 265.007 119.374C265.007 122.686 263.851 125.497 261.543 127.812C259.234 130.129 256.29 131.285 252.708 131.285H217.932ZM207.724 68.6854C207.251 69.2054 207.015 69.8434 207.015 70.5994V138.517C207.015 139.275 207.251 139.887 207.724 140.36C208.198 140.834 208.815 141.069 209.571 141.069H253.761C256.696 141.069 259.467 140.501 262.072 139.367C264.678 138.234 266.951 136.699 268.895 134.758C270.836 132.823 272.374 130.556 273.512 127.953C274.647 125.356 275.218 122.588 275.218 119.66C275.218 116.069 274.333 112.781 272.565 109.805C270.798 106.825 268.48 104.346 265.613 102.361C267.816 100.564 269.613 98.3914 271.007 95.8384C272.395 93.2854 273.089 90.4984 273.089 87.4714C273.089 84.8274 272.568 82.2954 271.527 79.8874C270.486 77.4754 269.063 75.3994 267.263 73.6464C265.463 71.8994 263.354 70.5054 260.94 69.4644C258.525 68.4264 255.99 67.9054 253.338 67.9054H209.571C208.815 67.9054 208.198 68.1674 207.724 68.6854ZM315.343 70.5995C315.343 69.8435 315.578 69.2055 316.052 68.6845C316.522 68.1675 317.137 67.9055 317.896 67.9055H360.433C363.553 67.9055 366.459 68.4965 369.153 69.6765C371.847 70.8615 374.208 72.4675 376.243 74.4995C378.273 76.5315 379.882 78.8925 381.064 81.5865C382.243 84.2805 382.837 87.1895 382.837 90.3095C382.837 92.9565 382.41 95.4625 381.561 97.8235C380.708 100.188 379.526 102.315 378.014 104.203C376.502 106.097 374.705 107.726 372.626 109.097C370.547 110.467 368.323 111.434 365.962 112.002L386.095 139.512C386.287 139.794 386.381 140.126 386.381 140.502C386.381 140.976 386.095 141.211 385.531 141.211H376.596C375.935 141.211 375.249 140.999 374.541 140.573C373.832 140.15 373.241 139.605 372.767 138.944L353.484 112.711H336.894C336.138 112.711 335.524 112.475 335.053 112.002C334.577 111.532 334.342 110.917 334.342 110.158V105.765C334.342 105.009 334.577 104.394 335.053 103.921C335.524 103.45 336.138 103.212 336.894 103.212H359.016C362.607 103.212 365.7 101.985 368.303 99.5235C370.9 97.0675 372.203 94.0445 372.203 90.4505C372.203 86.8595 370.9 83.8335 368.303 81.3745C365.7 78.9195 362.607 77.6875 359.016 77.6875H326.26V138.517C326.26 139.276 325.998 139.888 325.48 140.361C324.96 140.835 324.322 141.07 323.566 141.07H317.896C317.137 141.07 316.522 140.835 316.052 140.361C315.578 139.888 315.343 139.276 315.343 138.517V70.5995ZM495.701 139.793C495.701 139.699 495.606 139.367 495.419 138.802L461.813 70.5991C461.437 69.8441 460.893 69.2051 460.184 68.6851C459.475 68.1671 458.739 67.9061 457.986 67.9061H451.322C450.564 67.9061 449.832 68.1671 449.123 68.6851C448.414 69.2051 447.87 69.8441 447.493 70.5991L413.888 138.802C413.696 139.367 413.606 139.699 413.606 139.793C413.606 140.643 414.076 141.07 415.023 141.07H422.113C422.866 141.07 423.434 140.693 423.814 139.934L454.726 76.4141L472.023 113.704H446.926C445.885 113.704 445.176 114.178 444.8 115.122L441.68 121.36C441.585 121.551 441.538 121.786 441.538 122.068C441.538 122.733 441.867 123.062 442.529 123.062H476.562L484.644 139.934C485.02 140.693 485.587 141.07 486.343 141.07H494.283C495.228 141.07 495.701 140.643 495.701 139.793Z" fill="#231F20"/>
</svg>
